#N canvas 397 549 1167 964 12;
#X msg 91 77 devices;
#X msg 173 78 close;
#X msg 212 196 baud 115200 \, open 4;
#X obj 91 216 comport;
#X obj 91 279 pdchoco/slip_parse;
#X obj 91 342 oscparse;
#X obj 91 396 list trim;
#X obj 91 451 route decollage;
#X obj 91 532 nbx 5 17 -1e+37 1e+37 0 0 empty empty empty 0 -10 0 12 #fcfcfc #000000 #000000 0 256;
#X obj 254 522 netsend -u -b;
#X msg 254 477 connect 127.0.0.0 8001;
#X connect 0 0 3 0;
#X connect 1 0 3 0;
#X connect 2 0 3 0;
#X connect 3 0 4 0;
#X connect 4 0 5 0;
#X connect 5 0 6 0;
#X connect 6 0 7 0;
#X connect 7 0 8 0;
#X connect 7 0 9 0;
#X connect 10 0 9 0;
